%TF.GenerationSoftware,KiCad,Pcbnew,8.0.3*%
%TF.CreationDate,2024-11-08T22:06:30+02:00*%
%TF.ProjectId,Snowflake-Ornament,536e6f77-666c-4616-9b65-2d4f726e616d,rev?*%
%TF.SameCoordinates,Original*%
%TF.FileFunction,Legend,Bot*%
%TF.FilePolarity,Positive*%
%FSLAX46Y46*%
G04 Gerber Fmt 4.6, Leading zero omitted, Abs format (unit mm)*
G04 Created by KiCad (PCBNEW 8.0.3) date 2024-11-08 22:06:30*
%MOMM*%
%LPD*%
G01*
G04 APERTURE LIST*
G04 Aperture macros list*
%AMRotRect*
0 Rectangle, with rotation*
0 The origin of the aperture is its center*
0 $1 length*
0 $2 width*
0 $3 Rotation angle, in degrees counterclockwise*
0 Add horizontal line*
21,1,$1,$2,0,0,$3*%
G04 Aperture macros list end*
%ADD10C,0.150000*%
%ADD11C,0.120000*%
%ADD12RotRect,1.200000X0.900000X330.000000*%
%ADD13R,1.270000X5.080000*%
%ADD14C,17.800000*%
G04 APERTURE END LIST*
D10*
X204307067Y-109366117D02*
X203441041Y-108866117D01*
X203441041Y-108866117D02*
X203321994Y-109072314D01*
X203321994Y-109072314D02*
X203291804Y-109219841D01*
X203291804Y-109219841D02*
X203326664Y-109349939D01*
X203326664Y-109349939D02*
X203385333Y-109438797D01*
X203385333Y-109438797D02*
X203526481Y-109575275D01*
X203526481Y-109575275D02*
X203650199Y-109646703D01*
X203650199Y-109646703D02*
X203838965Y-109700702D01*
X203838965Y-109700702D02*
X203945254Y-109707082D01*
X203945254Y-109707082D02*
X204075351Y-109672222D01*
X204075351Y-109672222D02*
X204188019Y-109572314D01*
X204188019Y-109572314D02*
X204307067Y-109366117D01*
X203047329Y-109738522D02*
X202982281Y-109755952D01*
X202982281Y-109755952D02*
X202893422Y-109814621D01*
X202893422Y-109814621D02*
X202774375Y-110020818D01*
X202774375Y-110020818D02*
X202767995Y-110127106D01*
X202767995Y-110127106D02*
X202785425Y-110192155D01*
X202785425Y-110192155D02*
X202844094Y-110281013D01*
X202844094Y-110281013D02*
X202926572Y-110328632D01*
X202926572Y-110328632D02*
X203074100Y-110358821D01*
X203074100Y-110358821D02*
X203854686Y-110149664D01*
X203854686Y-110149664D02*
X203545162Y-110685775D01*
X209770714Y-111431009D02*
X209627857Y-111478628D01*
X209627857Y-111478628D02*
X209580238Y-111526247D01*
X209580238Y-111526247D02*
X209532619Y-111621485D01*
X209532619Y-111621485D02*
X209532619Y-111764342D01*
X209532619Y-111764342D02*
X209580238Y-111859580D01*
X209580238Y-111859580D02*
X209627857Y-111907200D01*
X209627857Y-111907200D02*
X209723095Y-111954819D01*
X209723095Y-111954819D02*
X210104047Y-111954819D01*
X210104047Y-111954819D02*
X210104047Y-110954819D01*
X210104047Y-110954819D02*
X209770714Y-110954819D01*
X209770714Y-110954819D02*
X209675476Y-111002438D01*
X209675476Y-111002438D02*
X209627857Y-111050057D01*
X209627857Y-111050057D02*
X209580238Y-111145295D01*
X209580238Y-111145295D02*
X209580238Y-111240533D01*
X209580238Y-111240533D02*
X209627857Y-111335771D01*
X209627857Y-111335771D02*
X209675476Y-111383390D01*
X209675476Y-111383390D02*
X209770714Y-111431009D01*
X209770714Y-111431009D02*
X210104047Y-111431009D01*
X209246904Y-110954819D02*
X208675476Y-110954819D01*
X208961190Y-111954819D02*
X208961190Y-110954819D01*
X207818333Y-111954819D02*
X208389761Y-111954819D01*
X208104047Y-111954819D02*
X208104047Y-110954819D01*
X208104047Y-110954819D02*
X208199285Y-111097676D01*
X208199285Y-111097676D02*
X208294523Y-111192914D01*
X208294523Y-111192914D02*
X208389761Y-111240533D01*
D11*
%TO.C,D2*%
X204275839Y-112030568D02*
X201062885Y-110175568D01*
X202116533Y-108930596D02*
X202021532Y-109095142D01*
X202824033Y-107705170D02*
X202746532Y-107839405D01*
X205785840Y-109415170D02*
X202824033Y-107705170D01*
X205785840Y-109415170D02*
X205708339Y-109549404D01*
X204275839Y-112030568D02*
X204353340Y-111896333D01*
X205078340Y-110640596D02*
X204983339Y-110805142D01*
%TO.C,BT1*%
X198205000Y-96370000D02*
X198205000Y-97000000D01*
X198205000Y-103000000D02*
X198205000Y-105460000D01*
X198205000Y-105460000D02*
X200285000Y-107540000D01*
X199645000Y-92420000D02*
X198205000Y-96370000D01*
X200285000Y-107540000D02*
X203785000Y-107540000D01*
X214185000Y-107540000D02*
X217685000Y-107540000D01*
X218325000Y-92420000D02*
X219765000Y-96370000D01*
X219765000Y-96370000D02*
X219765000Y-97000000D01*
X219765000Y-103000000D02*
X219765000Y-105460000D01*
X219765000Y-105460000D02*
X217685000Y-107540000D01*
X199645000Y-92420000D02*
G75*
G02*
X202981646Y-91433470I2030000J-730001D01*
G01*
X214985000Y-91450000D02*
G75*
G02*
X218310243Y-92411831I1310000J-1700000D01*
G01*
%TD*%
%LPC*%
D12*
%TO.C,D2*%
X201975000Y-109795737D03*
X202700001Y-108540000D03*
X205124872Y-109940001D03*
X204399871Y-111195738D03*
%TD*%
D13*
%TO.C,BT1*%
X198000000Y-100000000D03*
X219970000Y-100000000D03*
D14*
X208985000Y-100000000D03*
%TD*%
%LPD*%
M02*
