M48
INCH
T1C0.0118
T2C0.0118
T3C0.0157
%
G90
G05
T1
X7.8795Y-3.6992
X7.8811Y-3.8846
X7.8811Y-3.9878
X7.8815Y-3.5768
X7.8917Y-4.2618
X7.9307Y-4.0248
X8.0043Y-4.185
X8.013Y-4.3555
X8.0185Y-4.3134
X8.0339Y-3.6933
X8.0508Y-3.9748
X8.0713Y-4.1843
X8.0728Y-3.6173
X8.0996Y-4.3835
X8.1669Y-4.361
X8.1787Y-3.8626
X8.1827Y-4.0437
X8.1972Y-3.9429
X8.2319Y-4.3988
X8.2469Y-4.3315
X8.2634Y-4.102
X8.2756Y-3.9449
X8.3445Y-4.3925
X8.363Y-3.498
X8.3693Y-4.2945
X8.4028Y-3.7339
X8.4327Y-3.5587
X8.5118Y-3.7508
X8.5177Y-4.289
X8.5394Y-4.1551
X8.5445Y-3.9461
X8.5594Y-3.7551
X8.5657Y-3.7134
X8.5662Y-4.1615
X8.5846Y-3.7881
X8.5874Y-4.2358
X8.5937Y-4.1619
X8.613Y-4.139
X8.6201Y-4.1094
X8.6236Y-4.0807
X8.6709Y-4.0575
T2
X7.8797Y-4.1953
T3
X8.3902Y-3.565
X8.4461Y-3.6079
X8.5441Y-3.6433
M30
