%TF.GenerationSoftware,KiCad,Pcbnew,8.0.3*%
%TF.CreationDate,2024-11-08T22:06:30+02:00*%
%TF.ProjectId,Snowflake-Ornament,536e6f77-666c-4616-9b65-2d4f726e616d,rev?*%
%TF.SameCoordinates,Original*%
%TF.FileFunction,Copper,L4,Bot*%
%TF.FilePolarity,Positive*%
%FSLAX46Y46*%
G04 Gerber Fmt 4.6, Leading zero omitted, Abs format (unit mm)*
G04 Created by KiCad (PCBNEW 8.0.3) date 2024-11-08 22:06:30*
%MOMM*%
%LPD*%
G01*
G04 APERTURE LIST*
G04 Aperture macros list*
%AMRotRect*
0 Rectangle, with rotation*
0 The origin of the aperture is its center*
0 $1 length*
0 $2 width*
0 $3 Rotation angle, in degrees counterclockwise*
0 Add horizontal line*
21,1,$1,$2,0,0,$3*%
G04 Aperture macros list end*
%TA.AperFunction,SMDPad,CuDef*%
%ADD10RotRect,1.200000X0.900000X330.000000*%
%TD*%
%TA.AperFunction,ComponentPad*%
%ADD11R,0.500000X0.900000*%
%TD*%
%TA.AperFunction,SMDPad,CuDef*%
%ADD12R,1.270000X5.080000*%
%TD*%
%TA.AperFunction,SMDPad,CuDef*%
%ADD13C,17.800000*%
%TD*%
%TA.AperFunction,ViaPad*%
%ADD14C,0.600000*%
%TD*%
%TA.AperFunction,ViaPad*%
%ADD15C,0.800000*%
%TD*%
%TA.AperFunction,Conductor*%
%ADD16C,0.250000*%
%TD*%
%TA.AperFunction,Conductor*%
%ADD17C,0.200000*%
%TD*%
%TA.AperFunction,Conductor*%
%ADD18C,1.000000*%
%TD*%
G04 APERTURE END LIST*
D10*
%TO.P,D2,1,A*%
%TO.N,+BATT*%
X201975000Y-109795737D03*
%TO.P,D2,2,RK*%
%TO.N,Net-(D2-RK)*%
X202700001Y-108540000D03*
%TO.P,D2,3,GK*%
%TO.N,Net-(D2-GK)*%
X205124872Y-109940001D03*
%TO.P,D2,4,BK*%
%TO.N,Net-(D2-BK)*%
X204399871Y-111195738D03*
%TD*%
D11*
%TO.P,Antenna2,2,Shield*%
%TO.N,GND*%
X200145000Y-106560000D03*
%TD*%
D12*
%TO.P,BT1,1,+*%
%TO.N,+BATT*%
X198000000Y-100000000D03*
X219970000Y-100000000D03*
D13*
%TO.P,BT1,2,-*%
%TO.N,GND*%
X208985000Y-100000000D03*
%TD*%
D14*
%TO.N,GND*%
X213430000Y-94840000D03*
X201440000Y-102230000D03*
X200450000Y-108250000D03*
X216350000Y-108940000D03*
X200190000Y-90850000D03*
X212420000Y-88850000D03*
X216200000Y-95270000D03*
X200180000Y-101290000D03*
X210200000Y-100200000D03*
X203310000Y-106300000D03*
D15*
X213110000Y-90550000D03*
D14*
X207840000Y-102710000D03*
X205010000Y-106280000D03*
X208210000Y-100150000D03*
X212580000Y-109080000D03*
X214190000Y-90390000D03*
X205050000Y-91880000D03*
X204490000Y-100960000D03*
X207740000Y-98110000D03*
X203530000Y-110630000D03*
X209890000Y-104190000D03*
D15*
X214530000Y-91640000D03*
D14*
X204060000Y-93810000D03*
X200180000Y-98670000D03*
X217030000Y-100230000D03*
%TO.N,+BATT*%
X200140000Y-93960000D03*
X220240000Y-103060000D03*
X218120000Y-107590000D03*
D15*
X217020000Y-92540000D03*
D14*
%TO.N,Net-(D2-RK)*%
X205730000Y-111340000D03*
%TO.N,Net-(D2-BK)*%
X209090000Y-111730000D03*
%TO.N,Net-(D2-GK)*%
X203670000Y-109560000D03*
%TO.N,L1B*%
X217570000Y-94320000D03*
X219040000Y-103650000D03*
%TO.N,L1G*%
X218770000Y-105130000D03*
X217410000Y-95380000D03*
%TO.N,L1R*%
X218950000Y-104380000D03*
X218050000Y-96218806D03*
%TO.N,L2B*%
X216900000Y-105540000D03*
X209470000Y-110020000D03*
%TO.N,L2G*%
X217581091Y-105701615D03*
X207440000Y-110770000D03*
%TO.N,L2R*%
X211950000Y-111570000D03*
X218281027Y-105711253D03*
%TD*%
D16*
%TO.N,GND*%
X214530000Y-91640000D02*
X214250000Y-91920000D01*
X214250000Y-91920000D02*
X214250000Y-92800000D01*
%TO.N,+BATT*%
X202270000Y-89760000D02*
X200140000Y-91890000D01*
D17*
X213481438Y-111635710D02*
X212830471Y-111900110D01*
D16*
X214920000Y-90280000D02*
X214400000Y-89760000D01*
X217020000Y-92540000D02*
X217020000Y-92380000D01*
X217020000Y-92380000D02*
X215140000Y-90500000D01*
D17*
X211753702Y-112244815D02*
X205193883Y-112244815D01*
X215910752Y-110233145D02*
X215333352Y-110633505D01*
D16*
X215140000Y-90500000D02*
X215140000Y-90280000D01*
D17*
X201935064Y-109755802D02*
X201935064Y-109727869D01*
X216434525Y-109825475D02*
X215910752Y-110233145D01*
X215333352Y-110633505D02*
X214734778Y-111001447D01*
D16*
X220240000Y-103060000D02*
X219970000Y-102790000D01*
D17*
X214116855Y-111335850D02*
X213481438Y-111635710D01*
D16*
X214400000Y-89760000D02*
X202270000Y-89760000D01*
D17*
X202740000Y-110845746D02*
X202740000Y-110450000D01*
X202629262Y-110450000D02*
X201935064Y-109755802D01*
D18*
X199490000Y-94520000D02*
X199490000Y-96750000D01*
D16*
X219970000Y-102790000D02*
X219970000Y-100000000D01*
D17*
X203766342Y-111853451D02*
X203734254Y-111840000D01*
D18*
X199490000Y-96750000D02*
X198000000Y-98240000D01*
D17*
X212830471Y-111900110D02*
X212165939Y-112128245D01*
X211821179Y-112225734D02*
X211753702Y-112244815D01*
D16*
X217020000Y-92540000D02*
X219970000Y-95490000D01*
X215140000Y-90280000D02*
X214920000Y-90280000D01*
X200180000Y-94000000D02*
X200140000Y-93960000D01*
D17*
X202740000Y-110450000D02*
X202629262Y-110450000D01*
X218120000Y-107590000D02*
X218120000Y-108140000D01*
X205193883Y-112244815D02*
X205141800Y-112296898D01*
D18*
X200050000Y-93960000D02*
X199490000Y-94520000D01*
X200140000Y-93960000D02*
X200050000Y-93960000D01*
D16*
X200140000Y-91890000D02*
X200140000Y-93960000D01*
D17*
X203734254Y-111840000D02*
X202740000Y-110845746D01*
X204447766Y-112094674D02*
X203766342Y-111853451D01*
X218120000Y-108140000D02*
X216434525Y-109825475D01*
X212165939Y-112128245D02*
X211821179Y-112225734D01*
X205141800Y-112296898D02*
X204447766Y-112094674D01*
D16*
X219970000Y-95490000D02*
X219970000Y-100000000D01*
D18*
X198000000Y-98240000D02*
X198000000Y-100000000D01*
D17*
X214734778Y-111001447D02*
X214116855Y-111335850D01*
%TO.N,Net-(D2-RK)*%
X206370000Y-110700000D02*
X206370000Y-109610000D01*
X206370000Y-109610000D02*
X205232131Y-108472131D01*
X205232131Y-108472131D02*
X202660064Y-108472131D01*
X205730000Y-111340000D02*
X206370000Y-110700000D01*
%TO.N,Net-(D2-BK)*%
X205132067Y-111900000D02*
X204359936Y-111127869D01*
X208920000Y-111900000D02*
X205132067Y-111900000D01*
X209090000Y-111730000D02*
X208920000Y-111900000D01*
%TO.N,Net-(D2-GK)*%
X204772805Y-109560000D02*
X205084936Y-109872131D01*
X203670000Y-109560000D02*
X204772805Y-109560000D01*
%TO.N,L1B*%
X217570000Y-94320000D02*
X219200000Y-95950000D01*
X219135000Y-96015000D02*
X219135000Y-103555000D01*
X219135000Y-103555000D02*
X219040000Y-103650000D01*
X219200000Y-95950000D02*
X219135000Y-96015000D01*
%TO.N,L1G*%
X218420000Y-103058639D02*
X218129719Y-103348920D01*
X217410000Y-96220000D02*
X217520000Y-96330000D01*
X217520000Y-96330000D02*
X217520000Y-96395913D01*
X218420000Y-97295913D02*
X218420000Y-103058639D01*
X218129719Y-104489719D02*
X218770000Y-105130000D01*
X217520000Y-96395913D02*
X218420000Y-97295913D01*
X217410000Y-95380000D02*
X217410000Y-96220000D01*
X218129719Y-103348920D02*
X218129719Y-104489719D01*
%TO.N,L1R*%
X218429719Y-103887398D02*
X218922321Y-104380000D01*
X218810000Y-103092903D02*
X218429719Y-103473184D01*
X218429719Y-103473184D02*
X218429719Y-103887398D01*
X218922321Y-104380000D02*
X218950000Y-104380000D01*
X218810000Y-97245001D02*
X218810000Y-103092903D01*
X218050000Y-96485001D02*
X218810000Y-97245001D01*
X218050000Y-96218806D02*
X218050000Y-96485001D01*
%TO.N,L2B*%
X216900000Y-105540000D02*
X216900000Y-106550000D01*
X214230000Y-109220000D02*
X213430000Y-110020000D01*
X216900000Y-106550000D02*
X214230000Y-109220000D01*
X213430000Y-110020000D02*
X209470000Y-110020000D01*
%TO.N,L2G*%
X213104264Y-110770000D02*
X207440000Y-110770000D01*
X217581091Y-106293173D02*
X213104264Y-110770000D01*
X217581091Y-105701615D02*
X217581091Y-106293173D01*
%TO.N,L2R*%
X215150000Y-109720000D02*
X215150000Y-109148528D01*
X218281027Y-106017501D02*
X218281027Y-105711253D01*
X212846004Y-111570000D02*
X213360887Y-111360872D01*
X213641599Y-111228401D02*
X215150000Y-109720000D01*
X213360887Y-111360872D02*
X213641599Y-111228401D01*
X215150000Y-109148528D02*
X218281027Y-106017501D01*
X211950000Y-111570000D02*
X212846004Y-111570000D01*
%TD*%
M02*
