%TF.GenerationSoftware,KiCad,Pcbnew,8.0.3*%
%TF.CreationDate,2024-11-08T22:06:30+02:00*%
%TF.ProjectId,Snowflake-Ornament,536e6f77-666c-4616-9b65-2d4f726e616d,rev?*%
%TF.SameCoordinates,Original*%
%TF.FileFunction,Copper,L2,Inr*%
%TF.FilePolarity,Positive*%
%FSLAX46Y46*%
G04 Gerber Fmt 4.6, Leading zero omitted, Abs format (unit mm)*
G04 Created by KiCad (PCBNEW 8.0.3) date 2024-11-08 22:06:30*
%MOMM*%
%LPD*%
G01*
G04 APERTURE LIST*
%TA.AperFunction,ComponentPad*%
%ADD10R,0.500000X0.900000*%
%TD*%
%TA.AperFunction,ViaPad*%
%ADD11C,0.600000*%
%TD*%
%TA.AperFunction,ViaPad*%
%ADD12C,0.800000*%
%TD*%
G04 APERTURE END LIST*
D10*
%TO.N,GND*%
%TO.C,Antenna2*%
X200145000Y-106560000D03*
%TD*%
D11*
%TO.N,GND*%
X213430000Y-94840000D03*
X201440000Y-102230000D03*
X200450000Y-108250000D03*
X216350000Y-108940000D03*
X200190000Y-90850000D03*
X212420000Y-88850000D03*
X216200000Y-95270000D03*
X200180000Y-101290000D03*
X210200000Y-100200000D03*
X203310000Y-106300000D03*
D12*
X213110000Y-90550000D03*
D11*
X207840000Y-102710000D03*
X205010000Y-106280000D03*
X208210000Y-100150000D03*
X212580000Y-109080000D03*
X214190000Y-90390000D03*
X205050000Y-91880000D03*
X204490000Y-100960000D03*
X207740000Y-98110000D03*
X203530000Y-110630000D03*
X209890000Y-104190000D03*
D12*
X214530000Y-91640000D03*
D11*
X204060000Y-93810000D03*
X200180000Y-98670000D03*
X217030000Y-100230000D03*
%TO.N,+BATT*%
X200140000Y-93960000D03*
X220240000Y-103060000D03*
X218120000Y-107590000D03*
D12*
X217020000Y-92540000D03*
D11*
%TO.N,Net-(D2-RK)*%
X205730000Y-111340000D03*
%TO.N,Net-(D2-BK)*%
X209090000Y-111730000D03*
%TO.N,Net-(D2-GK)*%
X203670000Y-109560000D03*
%TO.N,L1B*%
X217570000Y-94320000D03*
X219040000Y-103650000D03*
%TO.N,L1G*%
X218770000Y-105130000D03*
X217410000Y-95380000D03*
%TO.N,L1R*%
X218950000Y-104380000D03*
X218050000Y-96218806D03*
%TO.N,L2B*%
X216900000Y-105540000D03*
X209470000Y-110020000D03*
%TO.N,L2G*%
X217581091Y-105701615D03*
X207440000Y-110770000D03*
%TO.N,L2R*%
X211950000Y-111570000D03*
X218281027Y-105711253D03*
%TD*%
%TA.AperFunction,Conductor*%
%TO.N,GND*%
G36*
X208361994Y-87108364D02*
G01*
X209065972Y-87127769D01*
X209069975Y-87127991D01*
X209771770Y-87186143D01*
X209775780Y-87186586D01*
X210473324Y-87283313D01*
X210477318Y-87283980D01*
X211168421Y-87418976D01*
X211172373Y-87419861D01*
X211855047Y-87592738D01*
X211858913Y-87593831D01*
X212531001Y-87804044D01*
X212534833Y-87805359D01*
X213194323Y-88052278D01*
X213198072Y-88053801D01*
X213842939Y-88336666D01*
X213846596Y-88338392D01*
X214474917Y-88656360D01*
X214478479Y-88658287D01*
X214945562Y-88927957D01*
X215088322Y-89010380D01*
X215091796Y-89012516D01*
X215681282Y-89397646D01*
X215684633Y-89399969D01*
X216252021Y-89816998D01*
X216255240Y-89819503D01*
X216798798Y-90267159D01*
X216801873Y-90269837D01*
X217319945Y-90746755D01*
X217322868Y-90749599D01*
X217813870Y-91254322D01*
X217816632Y-91257322D01*
X218279099Y-91788343D01*
X218281691Y-91791491D01*
X218714182Y-92347156D01*
X218716598Y-92350442D01*
X219117845Y-92929121D01*
X219120075Y-92932535D01*
X219488823Y-93532419D01*
X219490861Y-93535949D01*
X219789738Y-94088226D01*
X219826008Y-94155246D01*
X219827849Y-94158885D01*
X220128356Y-94795673D01*
X220129995Y-94799407D01*
X220383760Y-95424191D01*
X220394990Y-95451838D01*
X220396404Y-95455614D01*
X220573934Y-95972741D01*
X220625051Y-96121639D01*
X220626268Y-96125531D01*
X220817878Y-96803138D01*
X220818879Y-96807092D01*
X220972862Y-97494198D01*
X220973644Y-97498200D01*
X221089547Y-98192764D01*
X221090107Y-98196803D01*
X221167570Y-98896685D01*
X221167907Y-98900750D01*
X221206698Y-99603849D01*
X221206810Y-99607925D01*
X221206810Y-100312074D01*
X221206698Y-100316150D01*
X221167907Y-101019249D01*
X221167570Y-101023314D01*
X221090107Y-101723196D01*
X221089547Y-101727235D01*
X220973644Y-102421799D01*
X220972862Y-102425801D01*
X220836243Y-103035425D01*
X220803651Y-103081745D01*
X220747852Y-103091452D01*
X220701532Y-103058860D01*
X220690787Y-103029774D01*
X220676697Y-102931776D01*
X220676697Y-102931774D01*
X220622882Y-102813937D01*
X220538049Y-102716033D01*
X220471032Y-102672964D01*
X220429068Y-102645995D01*
X220304772Y-102609500D01*
X220175228Y-102609500D01*
X220050931Y-102645995D01*
X219941954Y-102716031D01*
X219941950Y-102716034D01*
X219857119Y-102813935D01*
X219803302Y-102931776D01*
X219784867Y-103060000D01*
X219803302Y-103188223D01*
X219803302Y-103188224D01*
X219803303Y-103188226D01*
X219857118Y-103306063D01*
X219941951Y-103403967D01*
X220050931Y-103474004D01*
X220175228Y-103510500D01*
X220304772Y-103510500D01*
X220429069Y-103474004D01*
X220538049Y-103403967D01*
X220615406Y-103314691D01*
X220666052Y-103289339D01*
X220719791Y-103307224D01*
X220745143Y-103357870D01*
X220742540Y-103383286D01*
X220626268Y-103794468D01*
X220625051Y-103798359D01*
X220396408Y-104464373D01*
X220394990Y-104468161D01*
X220129995Y-105120592D01*
X220128356Y-105124326D01*
X219827849Y-105761114D01*
X219826008Y-105764753D01*
X219490862Y-106384048D01*
X219488823Y-106387580D01*
X219120075Y-106987464D01*
X219117845Y-106990878D01*
X218716598Y-107569557D01*
X218714182Y-107572844D01*
X218701610Y-107588996D01*
X218652366Y-107616975D01*
X218597761Y-107601939D01*
X218569967Y-107554075D01*
X218556697Y-107461774D01*
X218502882Y-107343937D01*
X218418049Y-107246033D01*
X218351032Y-107202964D01*
X218309068Y-107175995D01*
X218184772Y-107139500D01*
X218055228Y-107139500D01*
X217930931Y-107175995D01*
X217821954Y-107246031D01*
X217821950Y-107246034D01*
X217737119Y-107343935D01*
X217683302Y-107461776D01*
X217664867Y-107590000D01*
X217683302Y-107718223D01*
X217683302Y-107718224D01*
X217683303Y-107718226D01*
X217737118Y-107836063D01*
X217821951Y-107933967D01*
X217930931Y-108004004D01*
X218055228Y-108040500D01*
X218184770Y-108040500D01*
X218184772Y-108040500D01*
X218184773Y-108040499D01*
X218186217Y-108040292D01*
X218187032Y-108040500D01*
X218190064Y-108040500D01*
X218190064Y-108041273D01*
X218241095Y-108054299D01*
X218269995Y-108103008D01*
X218255988Y-108157886D01*
X218252552Y-108162139D01*
X217816632Y-108662677D01*
X217813870Y-108665677D01*
X217322868Y-109170400D01*
X217319945Y-109173244D01*
X216801873Y-109650162D01*
X216798798Y-109652840D01*
X216255240Y-110100496D01*
X216252021Y-110103001D01*
X215684633Y-110520030D01*
X215681282Y-110522353D01*
X215091796Y-110907483D01*
X215088322Y-110909619D01*
X214478492Y-111261705D01*
X214474905Y-111263646D01*
X213846611Y-111581600D01*
X213842923Y-111583340D01*
X213198086Y-111866192D01*
X213194308Y-111867727D01*
X212534845Y-112114635D01*
X212530988Y-112115959D01*
X211858942Y-112326159D01*
X211855018Y-112327269D01*
X211172386Y-112500135D01*
X211168407Y-112501026D01*
X210477333Y-112636016D01*
X210473310Y-112636688D01*
X209775801Y-112733410D01*
X209771748Y-112733858D01*
X209070010Y-112792006D01*
X209065938Y-112792231D01*
X208362011Y-112811634D01*
X208357998Y-112811636D01*
X207676405Y-112793444D01*
X207672461Y-112793233D01*
X206992786Y-112738705D01*
X206988860Y-112738284D01*
X206313078Y-112647579D01*
X206309180Y-112646950D01*
X205639171Y-112520321D01*
X205635311Y-112519484D01*
X204973031Y-112357298D01*
X204969222Y-112356257D01*
X204316523Y-112158971D01*
X204312775Y-112157728D01*
X204274813Y-112144004D01*
X203671535Y-111925904D01*
X203667860Y-111924464D01*
X203643053Y-111913968D01*
X203411662Y-111816063D01*
X203039892Y-111658762D01*
X203036297Y-111657126D01*
X202628542Y-111458324D01*
X202423415Y-111358313D01*
X202419920Y-111356493D01*
X202390226Y-111340000D01*
X205274867Y-111340000D01*
X205293302Y-111468223D01*
X205293302Y-111468224D01*
X205293303Y-111468226D01*
X205347118Y-111586063D01*
X205431951Y-111683967D01*
X205540931Y-111754004D01*
X205665228Y-111790500D01*
X205794772Y-111790500D01*
X205919069Y-111754004D01*
X205956420Y-111730000D01*
X208634867Y-111730000D01*
X208653302Y-111858223D01*
X208653302Y-111858224D01*
X208653303Y-111858226D01*
X208707118Y-111976063D01*
X208791951Y-112073967D01*
X208900931Y-112144004D01*
X209025228Y-112180500D01*
X209154772Y-112180500D01*
X209279069Y-112144004D01*
X209388049Y-112073967D01*
X209472882Y-111976063D01*
X209526697Y-111858226D01*
X209545133Y-111730000D01*
X209526697Y-111601774D01*
X209512186Y-111570000D01*
X211494867Y-111570000D01*
X211513302Y-111698223D01*
X211513302Y-111698224D01*
X211513303Y-111698226D01*
X211567118Y-111816063D01*
X211651951Y-111913967D01*
X211760931Y-111984004D01*
X211885228Y-112020500D01*
X212014772Y-112020500D01*
X212139069Y-111984004D01*
X212248049Y-111913967D01*
X212332882Y-111816063D01*
X212386697Y-111698226D01*
X212405133Y-111570000D01*
X212386697Y-111441774D01*
X212332882Y-111323937D01*
X212248049Y-111226033D01*
X212181032Y-111182964D01*
X212139068Y-111155995D01*
X212014772Y-111119500D01*
X211885228Y-111119500D01*
X211760931Y-111155995D01*
X211651954Y-111226031D01*
X211651950Y-111226034D01*
X211567119Y-111323935D01*
X211513302Y-111441776D01*
X211494867Y-111570000D01*
X209512186Y-111570000D01*
X209472882Y-111483937D01*
X209388049Y-111386033D01*
X209316420Y-111340000D01*
X209279068Y-111315995D01*
X209154772Y-111279500D01*
X209025228Y-111279500D01*
X208900931Y-111315995D01*
X208791954Y-111386031D01*
X208791950Y-111386034D01*
X208707119Y-111483935D01*
X208653302Y-111601776D01*
X208634867Y-111730000D01*
X205956420Y-111730000D01*
X206028049Y-111683967D01*
X206112882Y-111586063D01*
X206166697Y-111468226D01*
X206185133Y-111340000D01*
X206166697Y-111211774D01*
X206112882Y-111093937D01*
X206028049Y-110996033D01*
X205961032Y-110952964D01*
X205919068Y-110925995D01*
X205794772Y-110889500D01*
X205665228Y-110889500D01*
X205540931Y-110925995D01*
X205431954Y-110996031D01*
X205431950Y-110996034D01*
X205347119Y-111093935D01*
X205347118Y-111093936D01*
X205347118Y-111093937D01*
X205337970Y-111113968D01*
X205293302Y-111211776D01*
X205274867Y-111340000D01*
X202390226Y-111340000D01*
X202361307Y-111323937D01*
X202058952Y-111155996D01*
X201823832Y-111025400D01*
X201820432Y-111023391D01*
X201416609Y-110770000D01*
X206984867Y-110770000D01*
X207003302Y-110898223D01*
X207003302Y-110898224D01*
X207003303Y-110898226D01*
X207057118Y-111016063D01*
X207141951Y-111113967D01*
X207250931Y-111184004D01*
X207375228Y-111220500D01*
X207504772Y-111220500D01*
X207629069Y-111184004D01*
X207738049Y-111113967D01*
X207822882Y-111016063D01*
X207876697Y-110898226D01*
X207895133Y-110770000D01*
X207876697Y-110641774D01*
X207822882Y-110523937D01*
X207738049Y-110426033D01*
X207641474Y-110363968D01*
X207629068Y-110355995D01*
X207504772Y-110319500D01*
X207375228Y-110319500D01*
X207250931Y-110355995D01*
X207141954Y-110426031D01*
X207141950Y-110426034D01*
X207057119Y-110523935D01*
X207003302Y-110641776D01*
X206984867Y-110770000D01*
X201416609Y-110770000D01*
X201242860Y-110660976D01*
X201239573Y-110658789D01*
X200682161Y-110266084D01*
X200678994Y-110263724D01*
X200369533Y-110020000D01*
X209014867Y-110020000D01*
X209033302Y-110148223D01*
X209033302Y-110148224D01*
X209033303Y-110148226D01*
X209087118Y-110266063D01*
X209171951Y-110363967D01*
X209280931Y-110434004D01*
X209405228Y-110470500D01*
X209534772Y-110470500D01*
X209659069Y-110434004D01*
X209768049Y-110363967D01*
X209852882Y-110266063D01*
X209906697Y-110148226D01*
X209925133Y-110020000D01*
X209906697Y-109891774D01*
X209852882Y-109773937D01*
X209768049Y-109676033D01*
X209701032Y-109632964D01*
X209659068Y-109605995D01*
X209534772Y-109569500D01*
X209405228Y-109569500D01*
X209280931Y-109605995D01*
X209171954Y-109676031D01*
X209171950Y-109676034D01*
X209087119Y-109773935D01*
X209033302Y-109891776D01*
X209014867Y-110020000D01*
X200369533Y-110020000D01*
X200143323Y-109841842D01*
X200140287Y-109839317D01*
X199822135Y-109560000D01*
X203214867Y-109560000D01*
X203233302Y-109688223D01*
X203233302Y-109688224D01*
X203233303Y-109688226D01*
X203287118Y-109806063D01*
X203371951Y-109903967D01*
X203480931Y-109974004D01*
X203605228Y-110010500D01*
X203734772Y-110010500D01*
X203859069Y-109974004D01*
X203968049Y-109903967D01*
X204052882Y-109806063D01*
X204106697Y-109688226D01*
X204125133Y-109560000D01*
X204106697Y-109431774D01*
X204052882Y-109313937D01*
X203968049Y-109216033D01*
X203899325Y-109171867D01*
X203859068Y-109145995D01*
X203734772Y-109109500D01*
X203605228Y-109109500D01*
X203480931Y-109145995D01*
X203371954Y-109216031D01*
X203371950Y-109216034D01*
X203287119Y-109313935D01*
X203233302Y-109431776D01*
X203214867Y-109560000D01*
X199822135Y-109560000D01*
X199756847Y-109502681D01*
X199731825Y-109451871D01*
X199731670Y-109447495D01*
X199731580Y-109431776D01*
X199716311Y-106769041D01*
X199709263Y-105540000D01*
X216444867Y-105540000D01*
X216463302Y-105668223D01*
X216463302Y-105668224D01*
X216463303Y-105668226D01*
X216517118Y-105786063D01*
X216601951Y-105883967D01*
X216710931Y-105954004D01*
X216835228Y-105990500D01*
X216964775Y-105990500D01*
X216964775Y-105990499D01*
X216964833Y-105990482D01*
X217089069Y-105954004D01*
X217108748Y-105941356D01*
X217164483Y-105931299D01*
X217204682Y-105955149D01*
X217283038Y-106045578D01*
X217283039Y-106045579D01*
X217283042Y-106045582D01*
X217392022Y-106115619D01*
X217516319Y-106152115D01*
X217645863Y-106152115D01*
X217770160Y-106115619D01*
X217879140Y-106045582D01*
X217879140Y-106045581D01*
X217883593Y-106042720D01*
X217884716Y-106044469D01*
X217931480Y-106028897D01*
X217978427Y-106052388D01*
X217978978Y-106051753D01*
X217981465Y-106053908D01*
X217982130Y-106054241D01*
X217982140Y-106054253D01*
X217982973Y-106055215D01*
X217982974Y-106055216D01*
X217982978Y-106055220D01*
X218091958Y-106125257D01*
X218216255Y-106161753D01*
X218345799Y-106161753D01*
X218470096Y-106125257D01*
X218579076Y-106055220D01*
X218663909Y-105957316D01*
X218717724Y-105839479D01*
X218736160Y-105711253D01*
X218729514Y-105665030D01*
X218743521Y-105610154D01*
X218792229Y-105581253D01*
X218802761Y-105580500D01*
X218834772Y-105580500D01*
X218959069Y-105544004D01*
X219068049Y-105473967D01*
X219152882Y-105376063D01*
X219206697Y-105258226D01*
X219225133Y-105130000D01*
X219206697Y-105001774D01*
X219152882Y-104883937D01*
X219152880Y-104883935D01*
X219150020Y-104879484D01*
X219151627Y-104878450D01*
X219135927Y-104831268D01*
X219161281Y-104780623D01*
X219169723Y-104774303D01*
X219248049Y-104723967D01*
X219332882Y-104626063D01*
X219386697Y-104508226D01*
X219405133Y-104380000D01*
X219386697Y-104251774D01*
X219332882Y-104133937D01*
X219312752Y-104110705D01*
X219294867Y-104056966D01*
X219320219Y-104006320D01*
X219328666Y-103999996D01*
X219338049Y-103993967D01*
X219422882Y-103896063D01*
X219476697Y-103778226D01*
X219495133Y-103650000D01*
X219476697Y-103521774D01*
X219422882Y-103403937D01*
X219338049Y-103306033D01*
X219271032Y-103262964D01*
X219229068Y-103235995D01*
X219104772Y-103199500D01*
X218975228Y-103199500D01*
X218850931Y-103235995D01*
X218741954Y-103306031D01*
X218741950Y-103306034D01*
X218657119Y-103403935D01*
X218603302Y-103521776D01*
X218584867Y-103650000D01*
X218603302Y-103778223D01*
X218657119Y-103896065D01*
X218657121Y-103896067D01*
X218677246Y-103919293D01*
X218695132Y-103973032D01*
X218669781Y-104023678D01*
X218661332Y-104030004D01*
X218651953Y-104036031D01*
X218651950Y-104036034D01*
X218567119Y-104133935D01*
X218513302Y-104251776D01*
X218494867Y-104380000D01*
X218513302Y-104508223D01*
X218567118Y-104626063D01*
X218569980Y-104630516D01*
X218568371Y-104631549D01*
X218584072Y-104678733D01*
X218558716Y-104729377D01*
X218550269Y-104735700D01*
X218471956Y-104786029D01*
X218471950Y-104786034D01*
X218387119Y-104883935D01*
X218333302Y-105001776D01*
X218315950Y-105122465D01*
X218314867Y-105130000D01*
X218318831Y-105157573D01*
X218321513Y-105176221D01*
X218307506Y-105231099D01*
X218258798Y-105260000D01*
X218248266Y-105260753D01*
X218216255Y-105260753D01*
X218091958Y-105297248D01*
X218020346Y-105343271D01*
X217996474Y-105358613D01*
X217978525Y-105370148D01*
X217977405Y-105368405D01*
X217930607Y-105383968D01*
X217883694Y-105360475D01*
X217883140Y-105361115D01*
X217880631Y-105358941D01*
X217879976Y-105358613D01*
X217879143Y-105357651D01*
X217879141Y-105357650D01*
X217879140Y-105357648D01*
X217805487Y-105310314D01*
X217770159Y-105287610D01*
X217645863Y-105251115D01*
X217516319Y-105251115D01*
X217392022Y-105287610D01*
X217372339Y-105300260D01*
X217316601Y-105310314D01*
X217276408Y-105286465D01*
X217198049Y-105196033D01*
X217131032Y-105152964D01*
X217089068Y-105125995D01*
X216964772Y-105089500D01*
X216835228Y-105089500D01*
X216710931Y-105125995D01*
X216601954Y-105196031D01*
X216601950Y-105196034D01*
X216517119Y-105293935D01*
X216517118Y-105293936D01*
X216517118Y-105293937D01*
X216514230Y-105300260D01*
X216463302Y-105411776D01*
X216444867Y-105540000D01*
X199709263Y-105540000D01*
X199655810Y-96218806D01*
X217594867Y-96218806D01*
X217613302Y-96347029D01*
X217613302Y-96347030D01*
X217613303Y-96347032D01*
X217667118Y-96464869D01*
X217751951Y-96562773D01*
X217860931Y-96632810D01*
X217985228Y-96669306D01*
X218114772Y-96669306D01*
X218239069Y-96632810D01*
X218348049Y-96562773D01*
X218432882Y-96464869D01*
X218486697Y-96347032D01*
X218505133Y-96218806D01*
X218486697Y-96090580D01*
X218432882Y-95972743D01*
X218348049Y-95874839D01*
X218279056Y-95830500D01*
X218239068Y-95804801D01*
X218114772Y-95768306D01*
X217985228Y-95768306D01*
X217860931Y-95804801D01*
X217751954Y-95874837D01*
X217751950Y-95874840D01*
X217667119Y-95972741D01*
X217613302Y-96090582D01*
X217594867Y-96218806D01*
X199655810Y-96218806D01*
X199651000Y-95380000D01*
X216954867Y-95380000D01*
X216973302Y-95508223D01*
X216973302Y-95508224D01*
X216973303Y-95508226D01*
X217027118Y-95626063D01*
X217111951Y-95723967D01*
X217220931Y-95794004D01*
X217345228Y-95830500D01*
X217474772Y-95830500D01*
X217599069Y-95794004D01*
X217708049Y-95723967D01*
X217792882Y-95626063D01*
X217846697Y-95508226D01*
X217865133Y-95380000D01*
X217846697Y-95251774D01*
X217792882Y-95133937D01*
X217708049Y-95036033D01*
X217641032Y-94992964D01*
X217599068Y-94965995D01*
X217474772Y-94929500D01*
X217345228Y-94929500D01*
X217220931Y-94965995D01*
X217111954Y-95036031D01*
X217111950Y-95036034D01*
X217027119Y-95133935D01*
X216973302Y-95251776D01*
X216954867Y-95380000D01*
X199651000Y-95380000D01*
X199644664Y-94275107D01*
X199666038Y-94222661D01*
X199718239Y-94200687D01*
X199770688Y-94222061D01*
X199774589Y-94226226D01*
X199841951Y-94303967D01*
X199950931Y-94374004D01*
X200075228Y-94410500D01*
X200204772Y-94410500D01*
X200329069Y-94374004D01*
X200413101Y-94320000D01*
X217114867Y-94320000D01*
X217133302Y-94448223D01*
X217133302Y-94448224D01*
X217133303Y-94448226D01*
X217187118Y-94566063D01*
X217271951Y-94663967D01*
X217380931Y-94734004D01*
X217505228Y-94770500D01*
X217634772Y-94770500D01*
X217759069Y-94734004D01*
X217868049Y-94663967D01*
X217952882Y-94566063D01*
X218006697Y-94448226D01*
X218025133Y-94320000D01*
X218006697Y-94191774D01*
X217952882Y-94073937D01*
X217868049Y-93976033D01*
X217801032Y-93932964D01*
X217759068Y-93905995D01*
X217634772Y-93869500D01*
X217505228Y-93869500D01*
X217380931Y-93905995D01*
X217271954Y-93976031D01*
X217271950Y-93976034D01*
X217187119Y-94073935D01*
X217133302Y-94191776D01*
X217114867Y-94320000D01*
X200413101Y-94320000D01*
X200438049Y-94303967D01*
X200522882Y-94206063D01*
X200576697Y-94088226D01*
X200595133Y-93960000D01*
X200576697Y-93831774D01*
X200522882Y-93713937D01*
X200438049Y-93616033D01*
X200371032Y-93572964D01*
X200329068Y-93545995D01*
X200204772Y-93509500D01*
X200075228Y-93509500D01*
X199950931Y-93545995D01*
X199841954Y-93616031D01*
X199841946Y-93616037D01*
X199771003Y-93697911D01*
X199720357Y-93723262D01*
X199666618Y-93705376D01*
X199641267Y-93654730D01*
X199641079Y-93649891D01*
X199634714Y-92540000D01*
X216464750Y-92540000D01*
X216483669Y-92683708D01*
X216539138Y-92817623D01*
X216539139Y-92817625D01*
X216627379Y-92932621D01*
X216742375Y-93020861D01*
X216876291Y-93076330D01*
X217020000Y-93095250D01*
X217163709Y-93076330D01*
X217297625Y-93020861D01*
X217412621Y-92932621D01*
X217500861Y-92817625D01*
X217556330Y-92683709D01*
X217575250Y-92540000D01*
X217556330Y-92396291D01*
X217500861Y-92262375D01*
X217412621Y-92147379D01*
X217297625Y-92059139D01*
X217287413Y-92054909D01*
X217163708Y-92003669D01*
X217020000Y-91984750D01*
X216876291Y-92003669D01*
X216742376Y-92059138D01*
X216627379Y-92147379D01*
X216539138Y-92262376D01*
X216483669Y-92396291D01*
X216464750Y-92540000D01*
X199634714Y-92540000D01*
X199623410Y-90568733D01*
X199644784Y-90516287D01*
X199648519Y-90512762D01*
X200132765Y-90086945D01*
X200135770Y-90084443D01*
X200671750Y-89661679D01*
X200674859Y-89659359D01*
X201232680Y-89265801D01*
X201235928Y-89263637D01*
X201813959Y-88900437D01*
X201817301Y-88898459D01*
X202413909Y-88566642D01*
X202417378Y-88564833D01*
X203030819Y-88265368D01*
X203034375Y-88263747D01*
X203662977Y-87997451D01*
X203666588Y-87996034D01*
X204308493Y-87763694D01*
X204312200Y-87762463D01*
X204965612Y-87564730D01*
X204969368Y-87563702D01*
X205632386Y-87401150D01*
X205636185Y-87400325D01*
X206306937Y-87273412D01*
X206310825Y-87272784D01*
X206987402Y-87181872D01*
X206991278Y-87181456D01*
X207671719Y-87126807D01*
X207675616Y-87126598D01*
X208358053Y-87108363D01*
X208361994Y-87108364D01*
G37*
%TD.AperFunction*%
%TD*%
M02*
